# xmcd
#
# Track frame offsets:
#	150
#	14475
#	29813
#	42668
#	54161
#	69916
#	89474
#	104089
#	119061
#	132318
#	142855
#	164729
#	182200
#	201338
#	215130
#	228409
#	242222
#	256323
#	267184
#	286919
#
# Disc length: 4025 seconds
#
# Revision: 0
# Processed by: cddbd v1.5.2PL0 Copyright (c) Steve Scherf et al.
# Submitted via: EasyCDDAExtractor 16.0.6.1
#
DISCID=400fb714
DTITLE=Συλλογικός δίσκος - Τα τραγούδια του τζούκ μποξ 1
DYEAR=2010
DGENRE=Ποικίλη
TTITLE0=Καζαντζίδης Στέλιος - Το αγριολούλουδο [Χ. Νικολόπουλος-Πυθαγόρας]
TTITLE1=Μπέλλου Σωτηρία - Συννεφιασμένη Κυριακή [Βασ. Τσιτσάνης]
TTITLE2=Ζαγοραίος Σπύρος - Ε ντε λα μαγκέν [Σ. Περιστέρης-Σ. Ζαγοραίος]
TTITLE3=Πάνου Πόλυ - Του αγοριού απέναντι [Μ. Πλέσσας-Λ. Παπαδόπουλος]
TTITLE4=Πουλόπουλος Γιάννης - Θα πιω απόψε το φεγγάρι [Μ. Πλέσσας-Λ. Παπαδόπου
TTITLE4=λος]
TTITLE5=Μοσχολιού Βίκυ - Απ' τα ψηλά στα χαμηλά [Α. Καλδάρας-Ε. Παπαγιαννοπούλ
TTITLE5=ου]
TTITLE6=Περπινιάδης Βαγγέλης - Τα νέα της Αλεξάνδρας [Κώστας Γιαννίδης]
TTITLE7=Αγγελόπουλος Μανώλης - Καλή τύχη [Απ. Καλδάρας]
TTITLE8=Λίντα Μαίρη - Εσύ είσαι η αιτία που υποφέρω [Μαν. Χιώτης]
TTITLE9=Γαβαλάς Πάνος - Σήκω πάνω, κάτσε κάτω [Χ.Νικολόπουλος-Γ.Βασιλόπουλος/Β
TTITLE9=Ατραΐδης]
TTITLE10=Γλυκερία - Νύχτες μαγικές [Βασ. Τσιτσάνης]
TTITLE11=Διονυσίου Άγγελος-Διονυσίου Στέλιος - Ο παλιατζής [Α. Ρεπάνης-Δ. Γκού
TTITLE11=της]
TTITLE12=Κερμανίδης Πόλυς - Τα πλοία πεθαίνουν στα λιμάνια [Γ. Μητσάκης]
TTITLE13=Χρηστάκης - Το πουλί [Μιχ. Γαβριηλίδης-Ζακ Ιακωβίδης]
TTITLE14=Μενιδιάτης Μιχάλης - Απαλλάχτηκα από σένα [Γ. Μπούρας-Παρασκευή Πολίτ
TTITLE14=ου]
TTITLE15=Κοινούσης Γιώργος - Οι πιτσιρίκοι [Γ. Κοινούσης]
TTITLE16=Κύπριος Στράτος - Ρολόϊ, κομπολόϊ [Άκης Πάνου]
TTITLE17=Χορν Δημήτρης - Οι χάντρες [Μ. Πλέσσας-Κ. Πρετεντέρης]
TTITLE18=Ψαριανός Δημήτρης - Η πιο μεγάλη ώρα [Άκης Πάνου]
TTITLE19=Βαμβακάρης Μάρκος-Σταύρου Σούλα - Πρέπει να ξέρεις μηχανή [Μ. Βαμβακά
TTITLE19=ρης]
EXTD=
EXTT0=
EXTT1=
EXTT2=
EXTT3=
EXTT4=
EXTT5=
EXTT6=
EXTT7=
EXTT8=
EXTT9=
EXTT10=
EXTT11=
EXTT12=
EXTT13=
EXTT14=
EXTT15=
EXTT16=
EXTT17=
EXTT18=
EXTT19=
PLAYORDER=
